Coordinates
version=1
nRows=14
nColumns=40
inDegrees=yes

Units are S.I. units (second, meters, Newtons, ...)
Angles are in degrees.

endheader
time	pelvis_tilt	pelvis_list	pelvis_rotation	pelvis_tx	pelvis_ty	pelvis_tz	hip_flexion_r	hip_adduction_r	hip_rotation_r	knee_angle_r	knee_angle_r_beta	ankle_angle_r	subtalar_angle_r	mtp_angle_r	hip_flexion_l	hip_adduction_l	hip_rotation_l	knee_angle_l	knee_angle_l_beta	ankle_angle_l	subtalar_angle_l	mtp_angle_l	lumbar_extension	lumbar_bending	lumbar_rotation	arm_flex_r	arm_add_r	arm_rot_r	elbow_flex_r	pro_sup_r	wrist_flex_r	wrist_dev_r	arm_flex_l	arm_add_l	arm_rot_l	elbow_flex_l	pro_sup_l	wrist_flex_l	wrist_dev_l
     37.63250000	     -5.70191121	     -5.22628882	      2.86934032	      0.90673214	      0.92499058	      0.45739499	      4.35567588	      0.16875710	    -13.65062570	     26.95100895	     26.95100895	     14.01456983	     -5.83842109	     -8.39951086	     26.03091574	     -5.82411558	     -0.56406153	     24.99580913	     24.99580913	      8.25749842	    -11.38643234	      4.12683952	     -7.80967309	      4.16541913	      3.28055799	     25.95389135	    -12.03378863	      7.71336696	     68.97353886	     45.37278531	      0.00000000	      0.00000000	     -2.16810960	     -9.09350521	     -7.58392282	     38.19364146	     45.73321509	      0.00000000	      0.00000000
     37.64514286	     -5.68847966	     -5.08660713	      2.69172622	      0.90648818	      0.92574430	      0.45523562	      5.67608520	     -0.50363979	    -13.26721391	     30.06333548	     30.06333548	     13.16819328	     -7.14117904	     -9.01188974	     25.37436734	     -5.66179830	     -0.98889357	     24.74581690	     24.74581690	      8.61411578	    -11.11629455	      3.93268833	     -7.99107920	      4.01890504	      3.61707638	     24.38070776	    -12.41336566	      8.02061826	     67.33633681	     45.40855203	      0.00000000	      0.00000000	     -1.27338946	     -9.30145643	     -7.70725151	     38.98875378	     45.76607116	      0.00000000	      0.00000000
     37.65778571	     -5.72878256	     -4.98035709	      2.50378907	      0.90608353	      0.92621496	      0.45324326	      7.24008983	     -1.07967086	    -12.68625698	     33.40035862	     33.40035862	     11.99978387	     -8.91747956	     -9.63349224	     24.81485063	     -5.54008322	     -1.40059428	     24.53917971	     24.53917971	      8.97258642	    -10.85698678	      3.67152533	     -8.09073875	      3.88006527	      3.91626141	     22.90197843	    -12.68920063	      8.27587437	     65.19600878	     45.46346172	      0.00000000	      0.00000000	     -0.45553813	     -9.53962716	     -7.76776218	     39.92933941	     45.79154332	      0.00000000	      0.00000000
     37.67042857	     -5.70680757	     -5.00173489	      2.36522494	      0.90560814	      0.92663689	      0.45135943	      8.71982686	     -1.33119004	    -11.82586027	     36.46195738	     36.46195738	      9.61573425	    -11.96652574	    -12.10699389	     24.26278545	     -5.56415274	     -1.77131974	     24.40528948	     24.40528948	      9.14795384	    -10.49974399	      2.94804257	     -8.12631787	      3.95059182	      3.10756241	     23.06576200	    -11.64203432	      8.68584088	     59.18089839	     45.63943777	      0.00000000	      0.00000000	     -0.88537262	    -10.21288450	     -7.34197773	     42.46291336	     45.78157331	      0.00000000	      0.00000000
     37.68307143	     -5.63110313	     -4.78887559	      2.25356431	      0.90495496	      0.92684752	      0.44920719	     10.41052695	     -2.08859290	    -11.45746846	     40.13587563	     40.13587563	      8.15214252	    -13.42035257	    -12.27834286	     23.68825686	     -5.27675656	     -2.05397888	     24.35982990	     24.35982990	      9.48975890	    -10.39726355	      2.74837198	     -8.40934550	      3.78634716	      3.25010789	     21.49825278	    -11.98175016	      8.97101616	     57.76398757	     45.66692227	      0.00000000	      0.00000000	      0.01719455	    -10.49175297	     -7.46194710	     43.28528913	     45.81425656	      0.00000000	      0.00000000
     37.69571429	     -5.66623491	     -4.69540243	      2.11358491	      0.90414971	      0.92684154	      0.44718981	     12.30912460	     -2.56829324	    -10.81769442	     43.76208929	     43.76208929	      6.36876602	    -15.36704228	    -12.05635641	     23.26682773	     -5.10691980	     -2.23663104	     24.32824754	     24.32824754	      9.78805426	    -10.35979405	      2.52677222	     -8.48189331	      3.80183861	      3.54179293	     19.97291209	    -12.34554922	      9.22347700	     55.49660030	     45.72434154	      0.00000000	      0.00000000	      0.77524615	    -10.72033138	     -7.45820399	     44.48672316	     45.83761377	      0.00000000	      0.00000000
     37.70835714	     -5.56007499	     -4.48685069	      2.03880009	      0.90329673	      0.92686022	      0.44504767	     14.09036056	     -3.23095071	    -10.36536342	     47.36554812	     47.36554812	      4.58238039	    -16.85540121	    -11.57440174	     22.75165945	     -4.80171854	     -2.42905140	     24.40399931	     24.40399931	     10.13009435	    -10.35503315	      2.30826865	     -8.77621726	      3.70288991	      3.52126601	     18.55422020	    -12.55550344	      9.40633715	     53.60253532	     45.77353220	      0.00000000	      0.00000000	      1.55394495	    -11.06286640	     -7.45018317	     45.50107857	     45.85769481	      0.00000000	      0.00000000
     37.72100000	     -5.54028054	     -4.46342926	      1.95971100	      0.90231959	      0.92679599	      0.44312556	     16.09535765	     -3.53885150	     -9.76093760	     51.05806766	     51.05806766	      4.00933328	    -17.59458123	     -7.11480308	     22.33015625	     -4.65726563	     -2.38807594	     24.41541104	     24.41541104	     10.41564183	    -10.56040158	      1.98011985	     -8.84963355	      3.77738849	      2.73873855	     18.92782050	    -11.61517564	      9.38259827	     46.77364103	     45.99434284	      0.00000000	      0.00000000	      0.86126818	    -11.96487850	     -6.38257373	     48.96926318	     45.81790013	      0.00000000	      0.00000000
     37.73364286	     -5.49756494	     -4.30515434	      1.88842047	      0.90126452	      0.92670341	      0.44110130	     18.07469707	     -4.04465734	     -9.27429665	     54.55794250	     54.55794250	      3.39919378	    -18.01943783	     -3.12842452	     21.91474120	     -4.36900759	     -2.41412814	     24.49736477	     24.49736477	     10.75506643	    -10.74036081	      1.86556317	     -9.02490716	      3.74976425	      2.52817014	     17.84204628	    -11.67002847	      9.49114523	     43.89240158	     46.05335072	      0.00000000	      0.00000000	      1.22870351	    -12.34727792	     -6.51890283	     50.70667799	     45.90242664	      0.00000000	      0.00000000
     37.74628571	     -5.46430066	     -4.09982585	      1.80519056	      0.90017608	      0.92662414	      0.43908477	     19.89521140	     -4.65788180	     -8.95462134	     57.51089440	     57.51089440	      1.93596228	    -18.58478213	     -2.36694076	     21.48127040	     -4.04790485	     -2.52417940	     24.53264766	     24.53264766	     11.12136284	    -10.78080599	      1.73195768	     -9.22353837	      3.72743060	      2.49858297	     16.16364586	    -12.09639160	      9.56992954	     42.62765219	     46.08170675	      0.00000000	      0.00000000	      2.01308168	    -12.58284750	     -6.68368472	     51.47415195	     45.93920227	      0.00000000	      0.00000000
     37.75892857	     -5.44854250	     -4.08219172	      1.70875108	      0.89901177	      0.92663724	      0.43747298	     21.89374038	     -4.76063552	     -8.33234163	     60.49087108	     60.49087108	      2.55963603	    -18.61566952	      4.37696169	     21.09087025	     -3.92323254	     -2.45747586	     24.57476426	     24.57476426	     11.50404786	    -10.99908837	      1.78286607	     -9.34983797	      3.88851972	      2.27781992	     15.42838456	    -11.92248325	      8.86623965	     38.55043204	     46.22584047	      0.00000000	      0.00000000	      2.09026691	    -13.04543613	     -6.42157633	     53.85238238	     46.00799887	      0.00000000	      0.00000000
     37.77157143	     -5.42184261	     -3.91055140	      1.59430305	      0.89787744	      0.92678692	      0.43581202	     23.57331668	     -5.20042466	     -8.02303979	     62.67241240	     62.67241240	      1.52199630	    -18.90220669	      4.87119622	     20.60471162	     -3.65295768	     -2.55598812	     24.49138891	     24.49138891	     11.82012033	    -11.03213136	      1.71424142	     -9.51171350	      3.88899934	      2.31290963	     13.69542155	    -12.39646032	      8.86646525	     37.36306416	     46.25522644	      0.00000000	      0.00000000	      2.84579226	    -13.27398625	     -6.65818082	     54.66832727	     46.05118327	      0.00000000	      0.00000000
     37.78421429	     -5.44188421	     -3.84562813	      1.39676100	      0.89664042	      0.92700910	      0.43448502	     25.26420675	     -5.38756623	     -7.64402112	     64.47455522	     64.47455522	      1.05088656	    -19.04210513	      6.06246751	     20.12255465	     -3.50970477	     -2.62994587	     24.31124423	     24.31124423	     12.13733129	    -11.22221624	      1.72825088	     -9.66315231	      3.99703724	      2.70952962	     12.00277855	    -12.95713481	      8.72605109	     35.63801912	     46.31206320	      0.00000000	      0.00000000	      3.57385778	    -13.21473753	     -6.81179386	     56.11943463	     46.09847639	      0.00000000	      0.00000000
     37.79685714	     -5.38415978	     -3.90656043	      1.22975612	      0.89539126	      0.92745952	      0.43354321	     26.87567914	     -5.22606201	     -7.18810286	     65.99990188	     65.99990188	      1.85621090	    -19.05080956	     10.59626469	     19.56888101	     -3.52244682	     -2.61576966	     24.12660867	     24.12660867	     12.41279920	    -11.33372237	      1.78156362	     -9.90806617	      4.20168031	      2.21556829	     11.39365496	    -12.65068539	      7.33298871	     32.21621691	     46.49726963	      0.00000000	      0.00000000	      3.15350955	    -13.85844118	     -6.87173643	     58.99050061	     46.19198265	      0.00000000	      0.00000000
